<svg version="1" xmlns="http://www.w3.org/2000/svg" width="682.667" height="682.667" viewBox="0 0 512.000000 512.000000"><path d="M133.6 1.7c-11.6 3-23.5 12.4-28.7 22.4-1.2 2.4-2.1 4.5-2.1 4.6.1.2-.7 2-1.6 4-1.6 3.5-1.7 18.7-1.9 220.3-.3 238.4-.7 222.9 5.8 235.1 1.8 3.2 5.2 7.9 7.8 10.4 5.3 5.3 16.3 11.1 23.6 12.5 3 .5 51.5.9 120.5.9 126.1 0 120.8.2 131.8-5.7 10.9-5.8 20.7-19.2 23.2-31.7.6-3.2.8-83.9.7-221.5-.2-210.6-.3-216.6-2.1-221.5-5.2-13.5-14.8-23.3-28.1-28.6l-6-2.4L258 .3C153.7.2 138.8.3 133.6 1.7z"/></svg>